<?xml version="1.0" standalone="no"?>
<!DOCTYPE svg PUBLIC "-//W3C//DTD SVG 20010904//EN"
 "http://www.w3.org/TR/2001/REC-SVG-20010904/DTD/svg10.dtd">
<svg version="1.0" xmlns="http://www.w3.org/2000/svg"
 width="40.000000pt" height="40.000000pt" viewBox="0 0 150.000000 150.000000"
 preserveAspectRatio="xMidYMid meet">
<g transform="translate(0.000000,150.000000) scale(0.100000,-0.100000)"
fill="#ffffff" stroke="none">
<path d="M513 1476 c-63 -30 -136 -95 -170 -153 -49 -85 -64 -155 -70 -335 -5
-165 9 -338 28 -338 4 0 11 17 15 38 12 69 18 69 62 5 22 -32 58 -71 81 -86
38 -25 46 -27 112 -21 39 4 77 13 84 21 19 18 168 18 184 -1 6 -7 42 -16 82
-20 66 -6 74 -4 114 21 25 15 61 54 86 91 l44 64 7 -43 c12 -69 17 -78 31 -54
17 29 22 395 7 485 -24 141 -110 264 -228 324 -50 25 -57 26 -234 26 -172 0
-186 -2 -235 -24z m598 -292 c35 -34 36 -35 28 -92 -11 -78 -34 -176 -71 -304
l-31 -107 -46 -11 c-25 -7 -121 -14 -213 -17 -132 -4 -182 -2 -240 11 l-73 16
-38 105 c-51 142 -77 247 -77 314 0 53 2 58 41 89 46 39 128 87 135 79 3 -2 7
-26 10 -53 9 -84 35 -217 49 -250 9 -23 21 -33 45 -38 41 -8 183 -8 232 0 34
6 39 11 52 53 19 61 34 139 42 229 l7 72 56 -31 c31 -17 72 -47 92 -65z"/>
<path d="M1144 578 c-9 -18 -53 -71 -98 -118 -76 -78 -146 -188 -146 -227 0
-10 -31 -13 -150 -13 -131 0 -150 2 -150 16 0 48 -110 204 -185 264 -22 17
-49 47 -59 66 -26 44 -38 43 -31 -3 3 -21 9 -74 14 -118 8 -73 13 -88 66 -175
64 -106 131 -202 169 -243 l25 -27 151 0 c178 0 154 -14 281 170 120 175 119
171 143 403 5 46 -8 48 -30 5z m-269 -390 c2 -2 1 -22 -2 -46 -5 -38 -8 -42
-33 -42 -16 0 -30 7 -34 15 -4 11 -20 15 -54 15 -32 0 -54 -5 -62 -15 -7 -8
-23 -15 -36 -15 -18 0 -24 6 -24 23 0 12 -3 32 -6 44 -5 18 -1 22 23 26 30 6
222 1 228 -5z"/>
</g>
</svg>
